<svg xmlns="http://www.w3.org/2000/svg" viewBox="76 76.00 1239.01 358.00">
  <defs>
    <linearGradient id="temp" x1="0" y1="0" x2="1" y2="0">
      <stop offset="0" stop-color="#FFB54D"/>
      <stop offset="0.5" stop-color="#FFF1DC"/>
      <stop offset="1" stop-color="#7CACF8"/>
    </linearGradient>
  </defs>
  <!-- mark -->
  <rect x="76" y="76" width="360" height="200" rx="100" fill="#8AB4F8"/>
  <rect x="104" y="104" width="304" height="144" rx="72" fill="url(#temp)"/>
  <rect x="242" y="268" width="28" height="146" fill="#8AB4F8"/>
  <rect x="156" y="402" width="200" height="32" rx="16" fill="#8AB4F8"/>
  <!-- wordmark: dLight, Inter SemiBold outlined to paths -->
  <g fill="#E8EAED">
    <path transform="translate(500.00,358.82) scale(0.139356,-0.139356)" d="M519.92041015625 -21.43994140625Q382.5604248046875 -21.43994140625 279.42041015625 47.7000732421875Q176.2803955078125 116.840087890625 119.46038818359375 240.7000732421875Q62.640380859375 364.56005859375 62.640380859375 528.719970703125Q62.640380859375 691.3599853515625 120.0003662109375 815.0399780273438Q177.3603515625 938.719970703125 280.32037353515625 1008.0799560546875Q383.2803955078125 1077.43994140625 518.48046875 1077.43994140625Q587.48046875 1077.43994140625 646.9205932617188 1058.659912109375Q706.3607177734375 1039.8798828125 754.3008422851562 1002.1398315429688Q802.240966796875 964.3997802734375 835.8809814453125 906.479736328125H837.52099609375V1490H1090.317626953125V0H841.52099609375V161.43994140625H839.8809814453125Q806.9207763671875 100.0799560546875 758.3406372070312 59.3599853515625Q709.760498046875 18.6400146484375 649.5204467773438 -1.39996337890625Q589.2803955078125 -21.43994140625 519.92041015625 -21.43994140625ZM579.3990478515625 189.5177001953125Q661.919677734375 189.5177001953125 723.1201171875 231.49798583984375Q784.320556640625 273.478271484375 817.9207763671875 349.8787841796875Q851.52099609375 426.279296875 851.52099609375 528.719970703125Q851.52099609375 631.8006591796875 817.9207763671875 707.8411865234375Q784.320556640625 783.8817138671875 723.1201171875 825.8619995117188Q661.919677734375 867.84228515625 579.3990478515625 867.84228515625Q501.718505859375 867.84228515625 442.738037109375 828.4220581054688Q383.757568359375 789.0018310546875 350.957275390625 713.601318359375Q318.156982421875 638.2008056640625 318.156982421875 528.719970703125Q318.156982421875 419.879150390625 350.957275390625 344.11865234375Q383.757568359375 268.358154296875 442.738037109375 228.93792724609375Q501.718505859375 189.5177001953125 579.3990478515625 189.5177001953125Z"/>
    <path transform="translate(667.51,358.82) scale(0.139356,-0.139356)" d="M123.52099609375 0V1490H388.4775390625V229.1171875H1079.11865234375V0Z"/>
    <path transform="translate(824.42,358.82) scale(0.139356,-0.139356)" d="M111.6005859375 0V1056H364.397216796875V0ZM237.638916015625 1213.0419921875Q173.07958984375 1213.0419921875 129.89996337890625 1254.3785170951123Q86.7203369140625 1295.7150420027247 86.7203369140625 1356.6820508968194Q86.7203369140625 1417.7203369140625 129.89996337890625 1458.7400512695312Q173.07958984375 1499.759765625 237.17289659814926 1499.759765625Q302.0953892299107 1499.759765625 345.32644217354914 1458.7786211286273Q388.5574951171875 1417.7974766322545 388.5574951171875 1356.2160182143703Q388.5574951171875 1295.44140625 345.26295011005703 1254.24169921875Q301.96840510292657 1213.0419921875 237.638916015625 1213.0419921875Z"/>
    <path transform="translate(890.75,358.82) scale(0.139356,-0.139356)" d="M591.0390625 -432Q451.5198974609375 -432 350.08013916015625 -391.36016845703125Q248.640380859375 -350.7203369140625 188.8603515625 -275.6204833984375Q129.080322265625 -200.5206298828125 114.640380859375 -97.6005859375H362.077392578125Q374.197509765625 -143.0810546875 405.89776611328125 -174.101318359375Q437.5980224609375 -205.12158203125 484.818359375 -221.24169921875Q532.0386962890625 -237.36181640625 591.0390625 -237.36181640625Q709.2398681640625 -237.36181640625 774.5604248046875 -173.40142822265625Q839.8809814453125 -109.4410400390625 839.8809814453125 11.51953125V172.5994873046875H838.8809814453125Q805.28076171875 111.239501953125 757.16064453125 71.239501953125Q709.04052734375 31.239501953125 649.3004760742188 12.0994873046875Q589.5604248046875 -7.04052734375 519.92041015625 -7.04052734375Q382.5604248046875 -7.04052734375 279.42041015625 61.91949462890625Q176.2803955078125 130.8795166015625 119.46038818359375 252.75958251953125Q62.640380859375 374.6396484375 62.640380859375 533.039794921875Q62.640380859375 693.5198974609375 120.0003662109375 816.2999267578125Q177.3603515625 939.0799560546875 280.32037353515625 1008.2599487304688Q383.2803955078125 1077.43994140625 518.48046875 1077.43994140625Q587.48046875 1077.43994140625 647.2805786132812 1058.2599487304688Q707.0806884765625 1039.0799560546875 756.3408203125 999.5198974609375Q805.6009521484375 959.9598388671875 839.801025390625 899.2796630859375H840.801025390625V1056H1090.317626953125V27.35888671875Q1090.317626953125 -136.2008056640625 1025.2776489257812 -237.320556640625Q960.2376708984375 -338.4403076171875 847.2179565429688 -385.22015380859375Q734.1982421875 -432 591.0390625 -432ZM579.3990478515625 201.0372314453125Q661.919677734375 201.0372314453125 723.1201171875 242.4775390625Q784.320556640625 283.9178466796875 817.9207763671875 359.41839599609375Q851.52099609375 434.9189453125 851.52099609375 535.919677734375Q851.52099609375 637.5604248046875 817.9207763671875 712.8809814453125Q784.320556640625 788.2015380859375 723.1201171875 829.4618530273438Q661.919677734375 870.72216796875 579.3990478515625 870.72216796875Q501.718505859375 870.72216796875 442.738037109375 832.0219116210938Q383.757568359375 793.3216552734375 350.957275390625 718.64111328125Q318.156982421875 643.9605712890625 318.156982421875 535.919677734375Q318.156982421875 428.518798828125 350.957275390625 353.65826416015625Q383.757568359375 278.7977294921875 442.738037109375 239.91748046875Q501.718505859375 201.0372314453125 579.3990478515625 201.0372314453125Z"/>
    <path transform="translate(1058.26,358.82) scale(0.139356,-0.139356)" d="M364.397216796875 597.120849609375V0H111.6005859375V1490H364.397216796875V787.4005126953125H310.5972900390625Q361.517333984375 928.6005859375 454.19732666015625 1003.020263671875Q546.8773193359375 1077.43994140625 684.476806640625 1077.43994140625Q795.4366455078125 1077.43994140625 880.19677734375 1029.5Q964.9569091796875 981.56005859375 1012.9570922851562 888.56005859375Q1060.957275390625 795.56005859375 1060.957275390625 659.599853515625V0H808.16064453125V619.52099609375Q808.16064453125 736.0018310546875 752.5602416992188 795.9622192382812Q696.9598388671875 855.922607421875 595.2391357421875 855.922607421875Q529.0386962890625 855.922607421875 476.8382568359375 828.8824462890625Q424.6378173828125 801.84228515625 394.51751708984375 744.701904296875Q364.397216796875 687.5615234375 364.397216796875 597.120849609375Z"/>
    <path transform="translate(1221.72,358.82) scale(0.139356,-0.139356)" d="M669.4366455078125 1056V853.122314453125H16.7999267578125V1056ZM201.2000732421875 1344H453.9967041015625V302.798095703125Q453.9967041015625 246.837890625 476.976806640625 224.8577880859375Q499.9569091796875 202.877685546875 561.3570556640625 202.877685546875Q585.7969970703125 202.877685546875 617.69677734375 202.877685546875Q649.5965576171875 202.877685546875 669.4366455078125 202.877685546875V0Q643.07666015625 0 600.7371215820312 0.0Q558.3975830078125 0 517.2781982421875 0Q355.3592529296875 0 278.2796630859375 65.259765625Q201.2000732421875 130.51953125 201.2000732421875 266.078857421875Z"/>
  </g>
</svg>
